  <svg
    width="49"
    height="48"
    viewBox="0 0 49 48"
    fill="none"
    xmlns="http://www.w3.org/2000/svg"
    data-v-1ec53882=""
  >
    <g clip-path="url(#clip0_3222_28124)" data-v-1ec53882="">
      <rect
        x="0.5"
        width="48"
        height="48"
        rx="24"
        fill="#8F0101"
        data-v-1ec53882=""
      ></rect>
      <path
        d="M33.8287 24.6564C33.7721 24.6183 33.6845 24.5587 33.6369 24.5188C33.5057 24.0652 32.9469 21.7923 32.6037 20.3854L32.5925 20.3383L32.5745 20.2935C32.3436 19.7135 31.6218 18.7314 30.3824 18.7314H23.0156V32.3815H25.5446C25.5317 32.2841 25.5186 32.1868 25.5051 32.0897C25.4658 31.7239 25.51 31.354 25.6344 31.0077H24.3929V20.1057H30.3838C30.9251 20.1057 31.2148 20.631 31.2822 20.7686C31.4713 21.5476 32.2363 24.6901 32.3549 25.0294C32.4874 25.4086 32.8157 25.6309 33.0556 25.7913L33.1225 25.8362V30.3623C33.1225 30.8804 32.7731 30.9996 32.4784 31.0086H30.457C30.5698 31.4483 30.4646 31.9978 30.2508 32.3828H32.4847C33.2932 32.3828 34.4998 31.845 34.4998 30.3627V25.6143C34.4984 25.1109 34.0955 24.8375 33.8287 24.6564Z"
        fill="white"
        stroke="white"
        stroke-width="0.1"
        data-v-1ec53882=""
      ></path>
      <path
        d="M33.8106 26.302H28.2306C28.048 26.302 27.8728 26.2296 27.7437 26.1007C27.6145 25.9719 27.542 25.7971 27.542 25.6149C27.542 25.4326 27.6145 25.2578 27.7437 25.129C27.8728 25.0001 28.048 24.9277 28.2306 24.9277H33.8106C33.9932 24.9277 34.1683 25.0001 34.2975 25.129C34.4266 25.2578 34.4992 25.4326 34.4992 25.6149C34.4992 25.7971 34.4266 25.9719 34.2975 26.1007C34.1683 26.2296 33.9932 26.302 33.8106 26.302Z"
        fill="white"
        stroke="white"
        stroke-width="0.1"
        data-v-1ec53882=""
      ></path>
      <path
        d="M13.1784 31.7434C13.1782 31.4898 13.233 31.2392 13.3392 31.0088H11.422C11.2394 31.0088 11.0642 31.0812 10.9351 31.21C10.8059 31.3389 10.7334 31.5137 10.7334 31.6959C10.7334 31.8781 10.8059 32.0529 10.9351 32.1818C11.0642 32.3106 11.2394 32.383 11.422 32.383H13.3015C13.2204 32.1795 13.1787 31.9625 13.1784 31.7434Z"
        fill="white"
        stroke="white"
        stroke-width="0.1"
        data-v-1ec53882=""
      ></path>
      <path
        d="M17.165 32.383H25.4797C25.3989 32.1606 25.3641 31.9242 25.3774 31.688C25.3906 31.4518 25.4517 31.2208 25.557 31.0088H17.2342C17.3147 31.231 17.35 31.4669 17.3382 31.7028C17.3264 31.9387 17.2677 32.17 17.1655 32.383H17.165Z"
        fill="white"
        stroke="white"
        stroke-width="0.1"
        data-v-1ec53882=""
      ></path>
      <path
        d="M27.7659 34.8296C27.1449 34.8296 26.5378 34.6458 26.0214 34.3016C25.5051 33.9573 25.1026 33.468 24.865 32.8955C24.6273 32.323 24.5652 31.6931 24.6863 31.0853C24.8075 30.4776 25.1065 29.9193 25.5456 29.4811C25.9848 29.043 26.5442 28.7446 27.1533 28.6237C27.7624 28.5028 28.3937 28.5648 28.9674 28.802C29.5412 29.0391 30.0316 29.4407 30.3766 29.9559C30.7216 30.4711 30.9058 31.0769 30.9058 31.6965C30.9046 32.5271 30.5734 33.3233 29.9848 33.9106C29.3962 34.4979 28.5983 34.8284 27.7659 34.8296ZM27.7659 29.9382C27.4172 29.9382 27.0765 30.0413 26.7866 30.2346C26.4967 30.4278 26.2708 30.7025 26.1374 31.0239C26.004 31.3453 25.9691 31.6989 26.0371 32.0401C26.1051 32.3813 26.273 32.6947 26.5195 32.9407C26.766 33.1866 27.0801 33.3541 27.422 33.422C27.7639 33.4899 28.1183 33.455 28.4404 33.3219C28.7625 33.1888 29.0378 32.9634 29.2315 32.6741C29.4251 32.3849 29.5285 32.0448 29.5285 31.697C29.528 31.2307 29.3422 30.7836 29.0117 30.4538C28.6813 30.1241 28.2332 29.9386 27.7659 29.9382Z"
        fill="white"
        stroke="white"
        stroke-width="0.1"
        data-v-1ec53882=""
      ></path>
      <path
        d="M15.2888 34.8296C14.6677 34.8297 14.0606 34.646 13.5442 34.3018C13.0278 33.9576 12.6253 33.4683 12.3876 32.8958C12.1499 32.3233 12.0876 31.6934 12.2087 31.0856C12.3298 30.4778 12.6288 29.9195 13.0679 29.4813C13.507 29.0431 14.0665 28.7446 14.6756 28.6237C15.2847 28.5028 15.916 28.5648 16.4898 28.8019C17.0636 29.039 17.554 29.4406 17.899 29.9559C18.2441 30.4711 18.4282 31.0769 18.4282 31.6965C18.427 32.527 18.0959 33.3232 17.5074 33.9105C16.9189 34.4978 16.1211 34.8283 15.2888 34.8296ZM15.2888 29.9382C14.9402 29.9382 14.5994 30.0413 14.3095 30.2346C14.0196 30.4278 13.7937 30.7025 13.6603 31.0239C13.5269 31.3453 13.492 31.6989 13.56 32.0401C13.628 32.3813 13.7959 32.6947 14.0424 32.9407C14.2889 33.1866 14.603 33.3541 14.9449 33.422C15.2868 33.4899 15.6412 33.455 15.9633 33.3219C16.2854 33.1888 16.5607 32.9634 16.7544 32.6741C16.9481 32.3849 17.0514 32.0448 17.0514 31.697C17.051 31.2307 16.8651 30.7836 16.5346 30.4538C16.2042 30.1241 15.7561 29.9386 15.2888 29.9382Z"
        fill="white"
        stroke="white"
        stroke-width="0.1"
        data-v-1ec53882=""
      ></path>
      <path
        d="M-2.61258 34.8296C-3.23361 34.8297 -3.84072 34.646 -4.35713 34.3018C-4.87354 33.9576 -5.27606 33.4683 -5.51378 32.8958C-5.7515 32.3233 -5.81376 31.6934 -5.69265 31.0856C-5.57155 30.4778 -5.27253 29.9195 -4.83343 29.4813C-4.39432 29.0431 -3.83485 28.7446 -3.22576 28.6237C-2.61666 28.5028 -1.98531 28.5648 -1.41155 28.8019C-0.837779 29.039 -0.347364 29.4406 -0.00232792 29.9559C0.342708 30.4711 0.526873 31.0769 0.526873 31.6965C0.525685 32.527 0.194551 33.3232 -0.39394 33.9105C-0.982431 34.4978 -1.78027 34.8283 -2.61258 34.8296ZM-2.61258 29.9382C-2.9612 29.9382 -3.30199 30.0413 -3.59186 30.2346C-3.88173 30.4278 -4.10765 30.7025 -4.24106 31.0239C-4.37447 31.3453 -4.40937 31.6989 -4.34136 32.0401C-4.27335 32.3813 -4.10548 32.6947 -3.85897 32.9407C-3.61245 33.1866 -3.29838 33.3541 -2.95646 33.422C-2.61453 33.4899 -2.26012 33.455 -1.93804 33.3219C-1.61596 33.1888 -1.34067 32.9634 -1.14698 32.6741C-0.953301 32.3849 -0.849927 32.0448 -0.849927 31.697C-0.850403 31.2307 -1.03625 30.7836 -1.36671 30.4538C-1.69717 30.1241 -2.14524 29.9386 -2.61258 29.9382Z"
        fill="white"
        stroke="white"
        stroke-width="0.1"
        data-v-1ec53882=""
      ></path>
      <path
        d="M-13.71 14V16.9878H-12.3327V15.3738H19.7485V28.1278H0.863814H-12.3327H-13.71V29.5016H21.1253V14H-13.71Z"
        fill="white"
        stroke="white"
        stroke-width="0.1"
        data-v-1ec53882=""
      ></path>
      <path
        d="M33.8871 28.7158H32.0508V30.0901H33.8871V28.7158Z"
        fill="white"
        stroke="white"
        stroke-width="0.1"
        data-v-1ec53882=""
      ></path>
    </g>
    <rect
      x="1"
      y="0.5"
      width="47"
      height="47"
      rx="23.5"
      stroke="#8F0101"
      data-v-1ec53882=""
    ></rect>
    <defs data-v-1ec53882="">
      <clipPath id="clip0_3222_28124" data-v-1ec53882="">
        <rect
          x="0.5"
          width="48"
          height="48"
          rx="24"
          fill="white"
          data-v-1ec53882=""
        ></rect>
      </clipPath>
    </defs>
  </svg>
